<svg width="522" height="223" viewBox="0 0 522 223" fill="none" xmlns="http://www.w3.org/2000/svg">
<path d="M156.843 136.636C161.8 139.853 166.49 142.884 171.162 145.933C177.575 150.11 183.96 154.353 190.419 158.465C191.774 159.323 191.755 160.022 190.99 161.225C175.05 186.421 152.577 201.77 123.276 205.854C94.8049 209.817 69.4847 201.863 47.7488 182.766C36.1852 172.611 27.7451 160.153 22.2443 145.69C21.627 144.058 21.0926 142.296 21.0097 140.562C20.7885 136.095 24.124 133.111 28.5191 133.792C30.2329 134.053 31.8914 134.724 33.5408 135.321C38.6822 137.195 41.9255 135.722 43.925 130.603C44.5147 129.101 45.1504 127.6 45.9521 126.211C47.5092 123.525 49.951 122.192 52.9916 122.248C56.3179 122.304 58.5477 124.215 59.9298 127.134C61.0907 129.568 61.9384 132.151 63.1547 134.547C71.6224 151.127 84.9643 161.085 103.171 163.986C123.286 167.184 144.505 157.011 155.138 139.443C155.654 138.594 156.17 137.755 156.862 136.645L156.843 136.636ZM64.9054 178.085C68.7753 178.057 72.2674 175.707 73.7232 172.173C75.2988 168.34 74.5525 164.424 71.6961 161.514C68.5818 158.344 64.8961 157.999 60.9341 159.416C58.8333 160.172 56.7417 161.291 54.5764 160.06C50.0247 157.477 44.7358 155.742 43.8236 149.215C43.4182 146.334 40.267 144.385 37.5489 144.422C34.6649 144.459 32.1679 146.362 31.1543 149.159C30.2145 151.742 31.053 153.943 32.7115 155.77C34.3147 157.533 36.4616 158.642 38.8849 157.803C42.2572 156.638 45.1504 157.412 47.9423 159.342C48.8176 159.948 49.739 160.517 50.6789 161.02C53.655 162.605 54.9542 165.03 55.1293 168.48C55.4241 174.094 59.7271 178.122 64.9054 178.075V178.085ZM101.19 177.404C101.19 173.217 97.8916 169.879 93.7914 169.907C89.7833 169.935 86.328 173.394 86.2727 177.423C86.2174 181.376 89.7464 185.004 93.6808 185.05C97.8732 185.097 101.19 181.721 101.19 177.404ZM76.8191 183.428C74.4695 183.446 72.3595 185.694 72.3964 188.137C72.4332 190.533 74.4603 192.519 76.8375 192.482C79.3345 192.445 81.3985 190.319 81.3248 187.876C81.2511 185.647 78.9844 183.409 76.8191 183.428ZM52.0149 145.737C54.2631 145.7 56.1336 143.853 56.152 141.653C56.1704 139.452 54.042 137.41 51.8122 137.503C49.7298 137.587 47.6659 139.75 47.758 141.746C47.8594 143.956 49.7851 145.774 52.0149 145.737ZM46.4128 171.277C48.8269 171.11 50.2182 170.205 49.9878 168.611C49.8404 167.585 48.4675 166.195 47.4355 165.981C45.9429 165.664 44.487 166.876 44.6621 168.545C44.7727 169.618 45.9336 170.587 46.4128 171.287V171.277Z" fill="url(#paint0_linear_2228_6269)"/>
<path d="M156.843 136.636C161.8 139.853 166.49 142.884 171.162 145.933C177.575 150.11 183.96 154.353 190.419 158.465C191.774 159.323 191.755 160.022 190.99 161.225C175.05 186.421 152.577 201.77 123.276 205.854C94.8049 209.817 69.4847 201.863 47.7488 182.766C36.1852 172.611 27.7451 160.153 22.2443 145.69C21.627 144.058 21.0926 142.296 21.0097 140.562C20.7885 136.095 24.124 133.111 28.5191 133.792C30.2329 134.053 31.8914 134.724 33.5408 135.321C38.6822 137.195 41.9255 135.722 43.925 130.603C44.5147 129.101 45.1504 127.6 45.9521 126.211C47.5092 123.525 49.951 122.192 52.9916 122.248C56.3179 122.304 58.5477 124.215 59.9298 127.134C61.0907 129.568 61.9384 132.151 63.1547 134.547C71.6224 151.127 84.9643 161.085 103.171 163.986C123.286 167.184 144.505 157.011 155.138 139.443C155.654 138.594 156.17 137.755 156.862 136.645L156.843 136.636ZM64.9054 178.085C68.7753 178.057 72.2674 175.707 73.7232 172.173C75.2988 168.34 74.5525 164.424 71.6961 161.514C68.5818 158.344 64.8961 157.999 60.9341 159.416C58.8333 160.172 56.7417 161.291 54.5764 160.06C50.0247 157.477 44.7358 155.742 43.8236 149.215C43.4182 146.334 40.267 144.385 37.5489 144.422C34.6649 144.459 32.1679 146.362 31.1543 149.159C30.2145 151.742 31.053 153.943 32.7115 155.77C34.3147 157.533 36.4616 158.642 38.8849 157.803C42.2572 156.638 45.1504 157.412 47.9423 159.342C48.8176 159.948 49.739 160.517 50.6789 161.02C53.655 162.605 54.9542 165.03 55.1293 168.48C55.4241 174.094 59.7271 178.122 64.9054 178.075V178.085ZM101.19 177.404C101.19 173.217 97.8916 169.879 93.7914 169.907C89.7833 169.935 86.328 173.394 86.2727 177.423C86.2174 181.376 89.7464 185.004 93.6808 185.05C97.8732 185.097 101.19 181.721 101.19 177.404ZM76.8191 183.428C74.4695 183.446 72.3595 185.694 72.3964 188.137C72.4332 190.533 74.4603 192.519 76.8375 192.482C79.3345 192.445 81.3985 190.319 81.3248 187.876C81.2511 185.647 78.9844 183.409 76.8191 183.428ZM52.0149 145.737C54.2631 145.7 56.1336 143.853 56.152 141.653C56.1704 139.452 54.042 137.41 51.8122 137.503C49.7298 137.587 47.6659 139.75 47.758 141.746C47.8594 143.956 49.7851 145.774 52.0149 145.737ZM46.4128 171.277C48.8269 171.11 50.2182 170.205 49.9878 168.611C49.8404 167.585 48.4675 166.195 47.4355 165.981C45.9429 165.664 44.487 166.876 44.6621 168.545C44.7727 169.618 45.9336 170.587 46.4128 171.287V171.277Z" fill="url(#paint1_linear_2228_6269)"/>
<path d="M95.1918 48.3585C95.1918 38.0267 106.405 30.8839 115.214 36.227C121.913 40.2833 126.962 37.4672 132.269 34.1009C133.062 33.5974 133.531 32.2173 133.725 31.1543C134.434 27.3778 136.222 24.5897 139.889 23.2003C143.547 21.8109 147.251 22.8646 150.117 26.1842C152.3 28.7205 152.826 33.4669 150.799 36.3855C149.214 38.6608 149.186 40.6563 150.292 43.0527C152.033 46.8293 153.673 50.6524 155.231 54.5129C156.825 58.4666 159.543 60.8537 163.689 61.8701C168.471 63.0451 171.475 66.2155 172.645 71.1017C173.861 76.1744 171.622 81.6853 167.246 84.3056C162.362 87.2335 156.53 86.758 152.577 83.1027C148.2 79.0557 146.975 73.3956 149.997 67.9499C152.337 63.7258 152.328 59.856 150.384 55.6225C148.643 51.846 147.159 47.9482 145.583 44.1064C144.856 42.3347 143.695 41.1784 141.732 40.8987C140.912 40.7868 140.018 40.5723 139.355 40.1154C136.655 38.2784 134.075 38.6328 131.431 40.2273C130.26 40.936 128.934 41.3836 127.717 42.0363C124.972 43.5096 123.414 45.7383 123.101 48.9833C122.484 55.3894 119.379 60.0238 113.141 62.0473C104.065 65.0033 95.1826 58.1868 95.1826 48.3585H95.1918Z" fill="url(#paint2_linear_2228_6269)"/>
<path d="M95.1918 48.3585C95.1918 38.0267 106.405 30.8839 115.214 36.227C121.913 40.2833 126.962 37.4672 132.269 34.1009C133.062 33.5974 133.531 32.2173 133.725 31.1543C134.434 27.3778 136.222 24.5897 139.889 23.2003C143.547 21.8109 147.251 22.8646 150.117 26.1842C152.3 28.7205 152.826 33.4669 150.799 36.3855C149.214 38.6608 149.186 40.6563 150.292 43.0527C152.033 46.8293 153.673 50.6524 155.231 54.5129C156.825 58.4666 159.543 60.8537 163.689 61.8701C168.471 63.0451 171.475 66.2155 172.645 71.1017C173.861 76.1744 171.622 81.6853 167.246 84.3056C162.362 87.2335 156.53 86.758 152.577 83.1027C148.2 79.0557 146.975 73.3956 149.997 67.9499C152.337 63.7258 152.328 59.856 150.384 55.6225C148.643 51.846 147.159 47.9482 145.583 44.1064C144.856 42.3347 143.695 41.1784 141.732 40.8987C140.912 40.7868 140.018 40.5723 139.355 40.1154C136.655 38.2784 134.075 38.6328 131.431 40.2273C130.26 40.936 128.934 41.3836 127.717 42.0363C124.972 43.5096 123.414 45.7383 123.101 48.9833C122.484 55.3894 119.379 60.0238 113.141 62.0473C104.065 65.0033 95.1826 58.1868 95.1826 48.3585H95.1918Z" fill="url(#paint3_linear_2228_6269)"/>
<path d="M34.5819 97.1451C37.7331 97.6114 40.9488 95.8023 43.4366 92.3242C45.2241 89.8252 47.0024 87.3075 48.9097 84.911C51.1487 82.0949 51.5726 79.083 50.7894 75.5769C48.9558 67.3245 56.1888 60.4894 64.2511 62.6994C68.6001 63.8929 71.7329 67.9213 71.908 72.565C72.1015 77.5538 69.5031 81.694 65.0619 83.2139C63.7075 83.6801 62.2424 84.0438 60.8235 84.0438C57.9947 84.0438 55.7926 85.1068 54.0788 87.3075C51.5818 90.5152 49.0571 93.7043 46.6246 96.9679C44.6344 99.6348 44.404 102.619 45.3531 105.771C46.468 109.5 47.1222 113.184 45.9428 117.128C44.0078 123.59 37.7054 128.374 30.9331 128.159C23.9396 127.936 17.8031 122.658 16.3565 115.925C14.2465 106.116 21.6546 96.1101 34.5726 97.1451H34.5819Z" fill="url(#paint4_linear_2228_6269)"/>
<path d="M34.5819 97.1451C37.7331 97.6114 40.9488 95.8023 43.4366 92.3242C45.2241 89.8252 47.0024 87.3075 48.9097 84.911C51.1487 82.0949 51.5726 79.083 50.7894 75.5769C48.9558 67.3245 56.1888 60.4894 64.2511 62.6994C68.6001 63.8929 71.7329 67.9213 71.908 72.565C72.1015 77.5538 69.5031 81.694 65.0619 83.2139C63.7075 83.6801 62.2424 84.0438 60.8235 84.0438C57.9947 84.0438 55.7926 85.1068 54.0788 87.3075C51.5818 90.5152 49.0571 93.7043 46.6246 96.9679C44.6344 99.6348 44.404 102.619 45.3531 105.771C46.468 109.5 47.1222 113.184 45.9428 117.128C44.0078 123.59 37.7054 128.374 30.9331 128.159C23.9396 127.936 17.8031 122.658 16.3565 115.925C14.2465 106.116 21.6546 96.1101 34.5726 97.1451H34.5819Z" fill="url(#paint5_linear_2228_6269)"/>
<path d="M44.874 73.61C44.9109 81.0232 40.6263 85.7043 33.9369 85.5457C29.0535 85.4245 24.8243 81.1538 24.2991 75.82C23.8384 71.111 27.4134 66.0663 32.002 65.1618C33.4762 64.8727 35.0426 64.7888 36.5261 64.966C39.1245 65.283 41.4095 64.7328 43.3261 62.9798C46.3759 60.1917 49.3889 57.3476 52.3558 54.4663C55.0002 51.9019 54.7423 48.5823 54.3368 45.3466C53.1574 35.8447 58.7319 28.6273 68.075 27.6575C74.4419 27.0048 81.9053 33.0939 82.8267 39.6958C84.089 48.7408 78.9752 55.8183 70.056 56.9933C67.9276 57.273 65.6517 56.8347 63.4956 56.4524C60.4181 55.9116 57.6815 56.4897 55.4149 58.6251C52.4111 61.4692 49.306 64.2573 46.6708 67.4277C45.3716 68.9849 44.6713 73.5354 44.874 73.6194V73.61Z" fill="url(#paint6_linear_2228_6269)"/>
<path d="M44.874 73.61C44.9109 81.0232 40.6263 85.7043 33.9369 85.5457C29.0535 85.4245 24.8243 81.1538 24.2991 75.82C23.8384 71.111 27.4134 66.0663 32.002 65.1618C33.4762 64.8727 35.0426 64.7888 36.5261 64.966C39.1245 65.283 41.4095 64.7328 43.3261 62.9798C46.3759 60.1917 49.3889 57.3476 52.3558 54.4663C55.0002 51.9019 54.7423 48.5823 54.3368 45.3466C53.1574 35.8447 58.7319 28.6273 68.075 27.6575C74.4419 27.0048 81.9053 33.0939 82.8267 39.6958C84.089 48.7408 78.9752 55.8183 70.056 56.9933C67.9276 57.273 65.6517 56.8347 63.4956 56.4524C60.4181 55.9116 57.6815 56.4897 55.4149 58.6251C52.4111 61.4692 49.306 64.2573 46.6708 67.4277C45.3716 68.9849 44.6713 73.5354 44.874 73.6194V73.61Z" fill="url(#paint7_linear_2228_6269)"/>
<path d="M92.3446 17.8285C97.3755 17.8751 101.697 22.4163 101.632 27.6009C101.568 32.7388 97.1083 37.1588 92.0037 37.1401C86.7148 37.1215 82.3842 32.5523 82.4303 27.0414C82.4672 22.0899 87.111 17.7819 92.3446 17.8285Z" fill="url(#paint8_linear_2228_6269)"/>
<path d="M92.3446 17.8285C97.3755 17.8751 101.697 22.4163 101.632 27.6009C101.568 32.7388 97.1083 37.1588 92.0037 37.1401C86.7148 37.1215 82.3842 32.5523 82.4303 27.0414C82.4672 22.0899 87.111 17.7819 92.3446 17.8285Z" fill="url(#paint9_linear_2228_6269)"/>
<path d="M176.303 47.2392C176.331 52.3585 172.387 56.3123 167.282 56.2936C162.417 56.2656 158.437 52.2187 158.409 47.2765C158.391 42.3531 162.371 38.2501 167.236 38.2035C172.221 38.1569 176.275 42.1945 176.303 47.2392Z" fill="url(#paint10_linear_2228_6269)"/>
<path d="M176.303 47.2392C176.331 52.3585 172.387 56.3123 167.282 56.2936C162.417 56.2656 158.437 52.2187 158.409 47.2765C158.391 42.3531 162.371 38.2501 167.236 38.2035C172.221 38.1569 176.275 42.1945 176.303 47.2392Z" fill="url(#paint11_linear_2228_6269)"/>
<path d="M134.112 65.1808C129.56 65.6377 126.04 61.1152 126.022 56.947C126.004 52.4897 129.652 48.8438 134.029 48.8438C138.949 48.8438 142.386 52.1913 142.405 57.0029C142.423 61.8238 138.986 65.2087 134.112 65.1808Z" fill="url(#paint12_linear_2228_6269)"/>
<path d="M134.112 65.1808C129.56 65.6377 126.04 61.1152 126.022 56.947C126.004 52.4897 129.652 48.8438 134.029 48.8438C138.949 48.8438 142.386 52.1913 142.405 57.0029C142.423 61.8238 138.986 65.2087 134.112 65.1808Z" fill="url(#paint13_linear_2228_6269)"/>
<path d="M113.979 29.8577C110.155 29.8577 107.17 26.8364 107.142 22.9666C107.124 19.3486 110.238 16.057 113.721 16.001C117.831 15.9358 120.908 18.985 120.844 23.0412C120.779 26.9763 117.868 29.867 113.97 29.8577H113.979Z" fill="url(#paint14_linear_2228_6269)"/>
<path d="M113.979 29.8577C110.155 29.8577 107.17 26.8364 107.142 22.9666C107.124 19.3486 110.238 16.057 113.721 16.001C117.831 15.9358 120.908 18.985 120.844 23.0412C120.779 26.9763 117.868 29.867 113.97 29.8577H113.979Z" fill="url(#paint15_linear_2228_6269)"/>
<path d="M189.083 60.6484C189.101 63.9121 186.005 66.9426 182.679 66.924C179.436 66.9146 176.349 63.9587 176.321 60.8442C176.294 57.1236 179.196 54.0464 182.725 54.0744C186.245 54.1024 189.064 57.021 189.083 60.6391V60.6484Z" fill="url(#paint16_linear_2228_6269)"/>
<path d="M189.083 60.6484C189.101 63.9121 186.005 66.9426 182.679 66.924C179.436 66.9146 176.349 63.9587 176.321 60.8442C176.294 57.1236 179.196 54.0464 182.725 54.0744C186.245 54.1024 189.064 57.021 189.083 60.6391V60.6484Z" fill="url(#paint17_linear_2228_6269)"/>
<path d="M82.0525 54.8659C85.13 54.9125 87.8942 57.626 87.8573 60.5633C87.8205 63.7244 84.9826 66.5312 81.9511 66.4006C78.8184 66.2701 76.3582 63.5939 76.4596 60.4514C76.5609 57.3929 79.1409 54.8192 82.0617 54.8659H82.0525Z" fill="url(#paint18_linear_2228_6269)"/>
<path d="M82.0525 54.8659C85.13 54.9125 87.8942 57.626 87.8573 60.5633C87.8205 63.7244 84.9826 66.5312 81.9511 66.4006C78.8184 66.2701 76.3582 63.5939 76.4596 60.4514C76.5609 57.3929 79.1409 54.8192 82.0617 54.8659H82.0525Z" fill="url(#paint19_linear_2228_6269)"/>
<path d="M50.0613 98.814C50.1534 95.7368 52.3832 93.331 55.1106 93.3776C58.1144 93.4242 60.5284 95.8767 60.4639 98.8046C60.3902 101.695 57.7458 104.148 54.8618 104.008C52.1989 103.877 49.9876 101.481 50.0705 98.814H50.0613Z" fill="url(#paint20_linear_2228_6269)"/>
<path d="M50.0613 98.814C50.1534 95.7368 52.3832 93.331 55.1106 93.3776C58.1144 93.4242 60.5284 95.8767 60.4639 98.8046C60.3902 101.695 57.7458 104.148 54.8618 104.008C52.1989 103.877 49.9876 101.481 50.0705 98.814H50.0613Z" fill="url(#paint21_linear_2228_6269)"/>
<path d="M27.5425 89.7972C27.5425 92.5201 25.801 94.3291 23.1474 94.3477C20.5398 94.3664 18.7062 92.5108 18.6878 89.8439C18.6786 87.0464 20.3002 85.4053 23.0921 85.3773C25.8471 85.3493 27.5333 87.0278 27.5425 89.7972Z" fill="url(#paint22_linear_2228_6269)"/>
<path d="M27.5425 89.7972C27.5425 92.5201 25.801 94.3291 23.1474 94.3477C20.5398 94.3664 18.7062 92.5108 18.6878 89.8439C18.6786 87.0464 20.3002 85.4053 23.0921 85.3773C25.8471 85.3493 27.5333 87.0278 27.5425 89.7972Z" fill="url(#paint23_linear_2228_6269)"/>
<path d="M38.3042 51.4721C38.3871 48.9545 40.1102 47.1548 42.4597 47.1641C44.7725 47.1641 46.8088 49.3741 46.6706 51.7332C46.5416 53.9805 44.6342 55.7988 42.4505 55.7709C40.0733 55.7429 38.2397 53.8313 38.3134 51.4721H38.3042Z" fill="url(#paint24_linear_2228_6269)"/>
<path d="M38.3042 51.4721C38.3871 48.9545 40.1102 47.1548 42.4597 47.1641C44.7725 47.1641 46.8088 49.3741 46.6706 51.7332C46.5416 53.9805 44.6342 55.7988 42.4505 55.7709C40.0733 55.7429 38.2397 53.8313 38.3134 51.4721H38.3042Z" fill="url(#paint25_linear_2228_6269)"/>
<path d="M129.137 27.9655C126.98 27.9934 125.064 26.1005 125.027 23.8905C124.981 21.4847 126.603 19.7317 128.906 19.713C131.191 19.6944 133.043 21.4474 133.099 23.6854C133.154 25.7368 131.108 27.9468 129.137 27.9748V27.9655Z" fill="url(#paint26_linear_2228_6269)"/>
<path d="M129.137 27.9655C126.98 27.9934 125.064 26.1005 125.027 23.8905C124.981 21.4847 126.603 19.7317 128.906 19.713C131.191 19.6944 133.043 21.4474 133.099 23.6854C133.154 25.7368 131.108 27.9468 129.137 27.9748V27.9655Z" fill="url(#paint27_linear_2228_6269)"/>
<path d="M255.615 128.016C254.255 132.865 251.74 140.242 250.185 143.645C247.661 144.223 239.716 146.172 232.349 146.172C206.27 146.172 195.513 129.387 195.513 113.954C195.513 93.8679 210.825 80.2812 234.091 80.2812C242.52 80.2812 249.989 82.3234 252.411 82.6125C252.895 87.1725 253.575 94.3528 254.255 98.6237L250.38 99.3045C248.35 91.7325 245.435 88.1423 240.303 86.1094C237.975 85.1396 234.491 84.748 231.874 84.748C217.82 84.748 210.741 96.4883 210.741 111.725C210.741 129.49 219.85 141.519 233.131 141.519C241.272 141.519 246.702 137.248 251.936 126.571L255.615 128.026V128.016Z" fill="#3A60A8"/>
<path d="M287.636 144.708V141.407C291.901 140.726 292.19 140.045 292.19 134.805V117.721C292.19 110.252 289.088 107.724 285.307 107.724C282.979 107.724 280.464 108.405 278.229 110.541V134.805C278.229 140.045 278.713 140.726 283.174 141.407V144.708H260.104V141.407C264.854 140.829 265.73 140.53 265.73 134.422V89.4845C265.73 85.0178 265.152 83.9548 259.722 83.0782V79.973C266.801 79.3948 273.581 78.0333 278.238 76.6719V106.755C281.628 103.454 286.378 100.442 291.324 100.442C299.753 100.442 304.801 105.971 304.801 116.649V134.404C304.801 140.521 305.481 140.614 310.128 141.388V144.689H287.636V144.708Z" fill="#3A60A8"/>
<path d="M350.364 135.196C344.45 143.934 336.701 145.874 332.63 145.874C319.638 145.874 312.28 136.269 312.28 124.715C312.28 117.917 315.475 111.222 319.554 107.249C323.913 102.885 329.343 100.451 334.67 100.451C344.17 100.451 350.764 108.312 350.662 116.267C350.662 117.917 350.569 119.568 349.405 119.857C347.56 120.342 333.897 121.022 324.49 121.414C324.881 131.7 330.6 136.94 337.576 136.94C341.357 136.94 345.139 135.579 348.622 132.576L350.364 135.196ZM332.724 104.433C328.849 104.433 325.552 108.993 324.965 116.658C328.942 116.565 332.621 116.462 336.691 116.369C338.051 116.276 338.629 116.08 338.629 114.429C338.722 109.58 336.496 104.433 332.714 104.433H332.724Z" fill="#3A60A8"/>
<path d="M409.646 144.709V141.407C413.52 140.829 414.2 140.438 414.2 134.516V117.731C414.2 109.674 410.419 108.219 407.42 108.219C405.483 108.219 403.247 108.798 400.248 111.231C400.341 112.397 400.444 113.852 400.444 115.307V134.908C400.444 140.344 400.733 140.829 405.194 141.407V144.709H383.381V141.407C387.647 140.829 388.038 140.531 388.038 134.908V117.246C388.038 110.355 385.328 108.126 381.733 108.126C379.311 108.126 376.982 109.003 374.272 111.036V134.908C374.272 140.344 374.85 140.829 378.435 141.407V144.709H356.241V141.407C361.568 140.727 361.866 140.344 361.866 134.516V113.945C361.866 108.509 361.773 107.632 357.209 106.961V103.855C362.639 103.268 368.162 101.916 374.272 100.172V107.455C376.405 106 378.147 104.741 380.186 103.473C383.195 101.627 385.514 100.461 388.429 100.461C393.859 100.461 397.445 103.37 399.289 107.837C401.617 106.093 403.555 104.732 405.976 103.081C408.109 101.72 410.819 100.461 413.735 100.461C422.164 100.461 426.625 106.187 426.625 116.09V134.917C426.625 140.251 427.109 140.643 431.859 141.417V144.718H409.664L409.646 144.709Z" fill="#3A60A8"/>
<path d="M436.302 144.708V141.407C441.536 140.727 442.114 140.344 442.114 133.453V114.532C442.114 108.033 441.629 107.641 437.075 107.063V103.864C443.185 103.184 449.285 101.925 454.622 100.368V133.462C454.622 140.064 455.013 140.745 460.63 141.417V144.718H436.302V144.708ZM447.637 94.4368C443.958 94.4368 440.661 91.3315 440.661 87.5455C440.661 83.5637 443.958 80.6543 447.739 80.6543C451.521 80.6543 454.715 83.5637 454.715 87.5455C454.715 91.5274 451.614 94.4368 447.637 94.4368Z" fill="#3A60A8"/>
<path d="M495.09 145.874C492.473 145.874 490.34 144.997 489.083 143.832C487.723 142.666 487.043 141.304 486.559 140.241C482.88 142.666 478.13 145.874 476.286 145.874C467.95 145.874 463.107 139.374 463.107 133.35C463.107 128.203 465.435 125.881 470.567 123.839C476.286 121.703 483.942 119.372 486.177 117.432V113.161C486.177 108.116 484.333 105.3 480.17 105.3C478.521 105.3 477.161 106.074 476.295 107.24C475.131 108.788 474.74 110.737 473.967 113.646C473.287 116.267 471.741 116.947 469.804 116.947C467.28 116.947 464.085 114.616 464.085 111.902C464.085 110.159 465.249 108.89 467.475 107.342C471.834 104.433 477.553 101.617 482.983 100.451C486.857 100.451 490.154 101.328 492.967 103.267C497.139 106.177 498.294 110.252 498.294 115.203V131.989C498.294 136.651 499.84 137.808 501.396 137.808C502.364 137.808 503.333 137.518 504.404 137.034L505.466 140.335L495.09 145.864V145.874ZM486.177 121.423C484.435 122.393 482.684 123.363 480.747 124.435C477.739 125.983 475.997 127.736 475.997 131.037C475.997 136.474 479.779 138.414 481.911 138.414C483.271 138.414 484.622 138.32 486.177 136.866V121.433V121.423Z" fill="#3A60A8"/>
<defs>
<linearGradient id="paint0_linear_2228_6269" x1="113.924" y1="196.436" x2="93.1024" y2="0.601755" gradientUnits="userSpaceOnUse">
<stop stop-color="#3A60A8"/>
<stop offset="0.06" stop-color="#4068AC"/>
<stop offset="0.35" stop-color="#6194C3"/>
<stop offset="0.62" stop-color="#78B4D3"/>
<stop offset="0.85" stop-color="#86C8DD"/>
<stop offset="1" stop-color="#8CCFE1"/>
</linearGradient>
<linearGradient id="paint1_linear_2228_6269" x1="113.924" y1="196.436" x2="93.1024" y2="0.601755" gradientUnits="userSpaceOnUse">
<stop stop-color="#3A60A8"/>
<stop offset="0.06" stop-color="#4068AC"/>
<stop offset="0.35" stop-color="#6194C3"/>
<stop offset="0.62" stop-color="#78B4D3"/>
<stop offset="0.85" stop-color="#86C8DD"/>
<stop offset="1" stop-color="#8CCFE1"/>
</linearGradient>
<linearGradient id="paint2_linear_2228_6269" x1="113.924" y1="196.436" x2="93.1024" y2="0.602076" gradientUnits="userSpaceOnUse">
<stop stop-color="#3A60A8"/>
<stop offset="0.06" stop-color="#4068AC"/>
<stop offset="0.35" stop-color="#6194C3"/>
<stop offset="0.62" stop-color="#78B4D3"/>
<stop offset="0.85" stop-color="#86C8DD"/>
<stop offset="1" stop-color="#8CCFE1"/>
</linearGradient>
<linearGradient id="paint3_linear_2228_6269" x1="113.924" y1="196.436" x2="93.1024" y2="0.602076" gradientUnits="userSpaceOnUse">
<stop stop-color="#3A60A8"/>
<stop offset="0.06" stop-color="#4068AC"/>
<stop offset="0.35" stop-color="#6194C3"/>
<stop offset="0.62" stop-color="#78B4D3"/>
<stop offset="0.85" stop-color="#86C8DD"/>
<stop offset="1" stop-color="#8CCFE1"/>
</linearGradient>
<linearGradient id="paint4_linear_2228_6269" x1="113.924" y1="196.435" x2="93.1024" y2="0.601399" gradientUnits="userSpaceOnUse">
<stop stop-color="#3A60A8"/>
<stop offset="0.06" stop-color="#4068AC"/>
<stop offset="0.35" stop-color="#6194C3"/>
<stop offset="0.62" stop-color="#78B4D3"/>
<stop offset="0.85" stop-color="#86C8DD"/>
<stop offset="1" stop-color="#8CCFE1"/>
</linearGradient>
<linearGradient id="paint5_linear_2228_6269" x1="113.924" y1="196.435" x2="93.1024" y2="0.601399" gradientUnits="userSpaceOnUse">
<stop stop-color="#3A60A8"/>
<stop offset="0.06" stop-color="#4068AC"/>
<stop offset="0.35" stop-color="#6194C3"/>
<stop offset="0.62" stop-color="#78B4D3"/>
<stop offset="0.85" stop-color="#86C8DD"/>
<stop offset="1" stop-color="#8CCFE1"/>
</linearGradient>
<linearGradient id="paint6_linear_2228_6269" x1="113.924" y1="196.436" x2="93.1024" y2="0.602064" gradientUnits="userSpaceOnUse">
<stop stop-color="#3A60A8"/>
<stop offset="0.06" stop-color="#4068AC"/>
<stop offset="0.35" stop-color="#6194C3"/>
<stop offset="0.62" stop-color="#78B4D3"/>
<stop offset="0.85" stop-color="#86C8DD"/>
<stop offset="1" stop-color="#8CCFE1"/>
</linearGradient>
<linearGradient id="paint7_linear_2228_6269" x1="113.924" y1="196.436" x2="93.1024" y2="0.602064" gradientUnits="userSpaceOnUse">
<stop stop-color="#3A60A8"/>
<stop offset="0.06" stop-color="#4068AC"/>
<stop offset="0.35" stop-color="#6194C3"/>
<stop offset="0.62" stop-color="#78B4D3"/>
<stop offset="0.85" stop-color="#86C8DD"/>
<stop offset="1" stop-color="#8CCFE1"/>
</linearGradient>
<linearGradient id="paint8_linear_2228_6269" x1="113.924" y1="196.435" x2="93.1023" y2="0.601377" gradientUnits="userSpaceOnUse">
<stop stop-color="#3A60A8"/>
<stop offset="0.06" stop-color="#4068AC"/>
<stop offset="0.35" stop-color="#6194C3"/>
<stop offset="0.62" stop-color="#78B4D3"/>
<stop offset="0.85" stop-color="#86C8DD"/>
<stop offset="1" stop-color="#8CCFE1"/>
</linearGradient>
<linearGradient id="paint9_linear_2228_6269" x1="113.924" y1="196.435" x2="93.1023" y2="0.601377" gradientUnits="userSpaceOnUse">
<stop stop-color="#3A60A8"/>
<stop offset="0.06" stop-color="#4068AC"/>
<stop offset="0.35" stop-color="#6194C3"/>
<stop offset="0.62" stop-color="#78B4D3"/>
<stop offset="0.85" stop-color="#86C8DD"/>
<stop offset="1" stop-color="#8CCFE1"/>
</linearGradient>
<linearGradient id="paint10_linear_2228_6269" x1="113.924" y1="196.436" x2="93.1022" y2="0.601759" gradientUnits="userSpaceOnUse">
<stop stop-color="#3A60A8"/>
<stop offset="0.06" stop-color="#4068AC"/>
<stop offset="0.35" stop-color="#6194C3"/>
<stop offset="0.62" stop-color="#78B4D3"/>
<stop offset="0.85" stop-color="#86C8DD"/>
<stop offset="1" stop-color="#8CCFE1"/>
</linearGradient>
<linearGradient id="paint11_linear_2228_6269" x1="113.924" y1="196.436" x2="93.1022" y2="0.601759" gradientUnits="userSpaceOnUse">
<stop stop-color="#3A60A8"/>
<stop offset="0.06" stop-color="#4068AC"/>
<stop offset="0.35" stop-color="#6194C3"/>
<stop offset="0.62" stop-color="#78B4D3"/>
<stop offset="0.85" stop-color="#86C8DD"/>
<stop offset="1" stop-color="#8CCFE1"/>
</linearGradient>
<linearGradient id="paint12_linear_2228_6269" x1="113.924" y1="196.436" x2="93.1024" y2="0.6024" gradientUnits="userSpaceOnUse">
<stop stop-color="#3A60A8"/>
<stop offset="0.06" stop-color="#4068AC"/>
<stop offset="0.35" stop-color="#6194C3"/>
<stop offset="0.62" stop-color="#78B4D3"/>
<stop offset="0.85" stop-color="#86C8DD"/>
<stop offset="1" stop-color="#8CCFE1"/>
</linearGradient>
<linearGradient id="paint13_linear_2228_6269" x1="113.924" y1="196.436" x2="93.1024" y2="0.6024" gradientUnits="userSpaceOnUse">
<stop stop-color="#3A60A8"/>
<stop offset="0.06" stop-color="#4068AC"/>
<stop offset="0.35" stop-color="#6194C3"/>
<stop offset="0.62" stop-color="#78B4D3"/>
<stop offset="0.85" stop-color="#86C8DD"/>
<stop offset="1" stop-color="#8CCFE1"/>
</linearGradient>
<linearGradient id="paint14_linear_2228_6269" x1="113.924" y1="196.436" x2="93.1023" y2="0.601558" gradientUnits="userSpaceOnUse">
<stop stop-color="#3A60A8"/>
<stop offset="0.06" stop-color="#4068AC"/>
<stop offset="0.35" stop-color="#6194C3"/>
<stop offset="0.62" stop-color="#78B4D3"/>
<stop offset="0.85" stop-color="#86C8DD"/>
<stop offset="1" stop-color="#8CCFE1"/>
</linearGradient>
<linearGradient id="paint15_linear_2228_6269" x1="113.924" y1="196.436" x2="93.1023" y2="0.601558" gradientUnits="userSpaceOnUse">
<stop stop-color="#3A60A8"/>
<stop offset="0.06" stop-color="#4068AC"/>
<stop offset="0.35" stop-color="#6194C3"/>
<stop offset="0.62" stop-color="#78B4D3"/>
<stop offset="0.85" stop-color="#86C8DD"/>
<stop offset="1" stop-color="#8CCFE1"/>
</linearGradient>
<linearGradient id="paint16_linear_2228_6269" x1="113.924" y1="196.436" x2="93.1024" y2="0.601865" gradientUnits="userSpaceOnUse">
<stop stop-color="#3A60A8"/>
<stop offset="0.06" stop-color="#4068AC"/>
<stop offset="0.35" stop-color="#6194C3"/>
<stop offset="0.62" stop-color="#78B4D3"/>
<stop offset="0.85" stop-color="#86C8DD"/>
<stop offset="1" stop-color="#8CCFE1"/>
</linearGradient>
<linearGradient id="paint17_linear_2228_6269" x1="113.924" y1="196.436" x2="93.1024" y2="0.601865" gradientUnits="userSpaceOnUse">
<stop stop-color="#3A60A8"/>
<stop offset="0.06" stop-color="#4068AC"/>
<stop offset="0.35" stop-color="#6194C3"/>
<stop offset="0.62" stop-color="#78B4D3"/>
<stop offset="0.85" stop-color="#86C8DD"/>
<stop offset="1" stop-color="#8CCFE1"/>
</linearGradient>
<linearGradient id="paint18_linear_2228_6269" x1="113.924" y1="196.435" x2="93.1023" y2="0.600699" gradientUnits="userSpaceOnUse">
<stop stop-color="#3A60A8"/>
<stop offset="0.06" stop-color="#4068AC"/>
<stop offset="0.35" stop-color="#6194C3"/>
<stop offset="0.62" stop-color="#78B4D3"/>
<stop offset="0.85" stop-color="#86C8DD"/>
<stop offset="1" stop-color="#8CCFE1"/>
</linearGradient>
<linearGradient id="paint19_linear_2228_6269" x1="113.924" y1="196.435" x2="93.1023" y2="0.600699" gradientUnits="userSpaceOnUse">
<stop stop-color="#3A60A8"/>
<stop offset="0.06" stop-color="#4068AC"/>
<stop offset="0.35" stop-color="#6194C3"/>
<stop offset="0.62" stop-color="#78B4D3"/>
<stop offset="0.85" stop-color="#86C8DD"/>
<stop offset="1" stop-color="#8CCFE1"/>
</linearGradient>
<linearGradient id="paint20_linear_2228_6269" x1="113.924" y1="196.435" x2="93.1022" y2="0.601151" gradientUnits="userSpaceOnUse">
<stop stop-color="#3A60A8"/>
<stop offset="0.06" stop-color="#4068AC"/>
<stop offset="0.35" stop-color="#6194C3"/>
<stop offset="0.62" stop-color="#78B4D3"/>
<stop offset="0.85" stop-color="#86C8DD"/>
<stop offset="1" stop-color="#8CCFE1"/>
</linearGradient>
<linearGradient id="paint21_linear_2228_6269" x1="113.924" y1="196.435" x2="93.1022" y2="0.601151" gradientUnits="userSpaceOnUse">
<stop stop-color="#3A60A8"/>
<stop offset="0.06" stop-color="#4068AC"/>
<stop offset="0.35" stop-color="#6194C3"/>
<stop offset="0.62" stop-color="#78B4D3"/>
<stop offset="0.85" stop-color="#86C8DD"/>
<stop offset="1" stop-color="#8CCFE1"/>
</linearGradient>
<linearGradient id="paint22_linear_2228_6269" x1="113.924" y1="196.435" x2="93.1025" y2="0.601493" gradientUnits="userSpaceOnUse">
<stop stop-color="#3A60A8"/>
<stop offset="0.06" stop-color="#4068AC"/>
<stop offset="0.35" stop-color="#6194C3"/>
<stop offset="0.62" stop-color="#78B4D3"/>
<stop offset="0.85" stop-color="#86C8DD"/>
<stop offset="1" stop-color="#8CCFE1"/>
</linearGradient>
<linearGradient id="paint23_linear_2228_6269" x1="113.924" y1="196.435" x2="93.1025" y2="0.601493" gradientUnits="userSpaceOnUse">
<stop stop-color="#3A60A8"/>
<stop offset="0.06" stop-color="#4068AC"/>
<stop offset="0.35" stop-color="#6194C3"/>
<stop offset="0.62" stop-color="#78B4D3"/>
<stop offset="0.85" stop-color="#86C8DD"/>
<stop offset="1" stop-color="#8CCFE1"/>
</linearGradient>
<linearGradient id="paint24_linear_2228_6269" x1="113.924" y1="196.435" x2="93.1022" y2="0.601199" gradientUnits="userSpaceOnUse">
<stop stop-color="#3A60A8"/>
<stop offset="0.06" stop-color="#4068AC"/>
<stop offset="0.35" stop-color="#6194C3"/>
<stop offset="0.62" stop-color="#78B4D3"/>
<stop offset="0.85" stop-color="#86C8DD"/>
<stop offset="1" stop-color="#8CCFE1"/>
</linearGradient>
<linearGradient id="paint25_linear_2228_6269" x1="113.924" y1="196.435" x2="93.1022" y2="0.601199" gradientUnits="userSpaceOnUse">
<stop stop-color="#3A60A8"/>
<stop offset="0.06" stop-color="#4068AC"/>
<stop offset="0.35" stop-color="#6194C3"/>
<stop offset="0.62" stop-color="#78B4D3"/>
<stop offset="0.85" stop-color="#86C8DD"/>
<stop offset="1" stop-color="#8CCFE1"/>
</linearGradient>
<linearGradient id="paint26_linear_2228_6269" x1="113.924" y1="196.436" x2="93.1025" y2="0.602317" gradientUnits="userSpaceOnUse">
<stop stop-color="#3A60A8"/>
<stop offset="0.06" stop-color="#4068AC"/>
<stop offset="0.35" stop-color="#6194C3"/>
<stop offset="0.62" stop-color="#78B4D3"/>
<stop offset="0.85" stop-color="#86C8DD"/>
<stop offset="1" stop-color="#8CCFE1"/>
</linearGradient>
<linearGradient id="paint27_linear_2228_6269" x1="113.924" y1="196.436" x2="93.1025" y2="0.602317" gradientUnits="userSpaceOnUse">
<stop stop-color="#3A60A8"/>
<stop offset="0.06" stop-color="#4068AC"/>
<stop offset="0.35" stop-color="#6194C3"/>
<stop offset="0.62" stop-color="#78B4D3"/>
<stop offset="0.85" stop-color="#86C8DD"/>
<stop offset="1" stop-color="#8CCFE1"/>
</linearGradient>
</defs>
</svg>
