<svg width="275" height="207" viewBox="0 0 275 207" fill="none" xmlns="http://www.w3.org/2000/svg">
<path d="M0.578125 83.6211H21.8773V100.014H0.578125V83.6211Z" fill="#0A3A82"/>
<path d="M19.4062 83.6211H40.7314V100.014H19.4062V83.6211Z" fill="#0A3A82"/>
<path d="M38.2617 83.6211H59.5869V100.014H38.2617V83.6211Z" fill="#0A3A82"/>
<path fill-rule="evenodd" clip-rule="evenodd" d="M137.76 66.2384C137.76 83.932 126.135 99.8563 106.292 99.8563C96.462 99.8563 88.426 96.2395 82.5226 90.333C77.1653 96.1615 69.5194 99.388 59.585 99.9344C58.5621 99.9864 57.5219 100.012 56.4643 100.012H52.1992V83.6198H53.8376C68.9213 83.6198 72.8482 78.2076 73.1863 63.6104C73.1863 46.229 85.3053 30.3047 104.81 30.3047C126.135 30.3047 137.76 46.3851 137.76 66.2384ZM121.376 64.1047C121.376 52.4478 116.305 44.0953 106.292 44.0953C94.6676 44.0953 89.5703 52.4478 89.5703 66.2384C89.5703 77.8694 94.6676 86.0657 104.81 86.0657C116.461 86.0657 121.376 77.8694 121.376 64.1047Z" fill="#0A3A82"/>
<path d="M121.376 64.1071C121.376 77.8717 116.461 86.068 104.81 86.068C94.6675 86.068 89.5703 77.8717 89.5703 66.2407C89.5703 52.4501 94.6676 44.0977 106.292 44.0977C116.305 44.0977 121.376 52.4501 121.376 64.1071Z" fill="#EAB977"/>
<path d="M274.555 13.2628V72.1462C274.555 87.394 265.375 99.3632 251.176 100.014H162.26C148.113 100.014 139.062 95.9286 139.062 88.3828V83.6211H172.403V0.617059H180.933C185.536 0.617059 191.413 4.57211 191.413 9.98428V83.6211H245.22C252.918 82.9706 255.701 78.7033 255.701 71.1575V0.460938H261.604C270.134 0.460938 274.555 4.88435 274.555 13.2628Z" fill="#0A3A82"/>
<path d="M40.575 20.2364C40.575 28.3026 37.6883 33.0903 30.8746 33.0903C24.9452 33.0903 21.9805 28.3026 21.9805 21.4853C21.9805 13.4191 24.9452 8.52734 31.7328 8.52734C37.6103 8.52734 40.575 13.4191 40.575 20.2364Z" fill="#EAB977"/>
<path d="M39.3593 206.177H32.7277C12.2607 206.177 1 194.78 1 173.99V118.438H8.07371C15.1474 118.438 18.8924 122.471 18.8924 131.135V172.845C18.8924 185.96 21.9091 190.877 34.8862 190.877H39.3593C47.5773 190.877 54.365 189.004 57.5378 187.703V193.609C57.5378 201.259 53.7929 206.177 39.3593 206.177Z" fill="#0A3A82"/>
<path fill-rule="evenodd" clip-rule="evenodd" d="M175.223 168.084V183.071C175.223 196.94 165.003 206.593 150.569 206.593H147.24C131.689 206.593 121 197.799 121 185.829C121 174.12 129.504 165.326 153.612 165.326H159.229V164.467C159.229 155.23 154.912 152.498 145.238 152.498C133.405 152.498 126.929 156.947 124.459 159.992H123.887V154.787C123.887 147.45 130.388 138.785 147.552 138.785C162.116 138.785 175.223 145.576 175.223 168.084ZM159.359 177.009H153.612C141.207 177.009 137.722 179.897 137.722 185.231C137.722 190.279 141.779 193.323 148.983 193.323C155.901 193.323 159.359 189.863 159.359 183.227V177.009Z" fill="#0A3A82"/>
<path fill-rule="evenodd" clip-rule="evenodd" d="M114.223 168.084V183.071C114.223 196.94 104.003 206.593 89.5692 206.593H86.2404C70.6886 206.593 60 197.799 60 185.829C60 174.12 68.5041 165.326 92.6119 165.326H98.2293V164.467C98.2293 155.23 93.9123 152.498 84.2379 152.498C72.405 152.498 65.9294 156.947 63.4588 159.992H62.8867V154.787C62.8867 147.45 69.3883 138.785 86.5525 138.785C101.116 138.785 114.223 145.576 114.223 168.084ZM98.3594 177.009H92.6119C80.2069 177.009 76.7221 179.897 76.7221 185.231C76.7221 190.279 80.7791 193.323 87.9828 193.323C94.9005 193.323 98.3594 189.863 98.3594 183.227V177.009Z" fill="#0A3A82"/>
<path d="M98.3599 177.008V183.227C98.3599 189.862 94.9011 193.322 87.9834 193.322C80.7797 193.322 76.7227 190.278 76.7227 185.23C76.7227 179.896 80.2075 177.008 92.6125 177.008H98.3599Z" fill="#EAB977"/>
<path d="M159.637 177.008V183.227C159.637 189.862 156.128 193.322 149.109 193.322C141.8 193.322 137.684 190.278 137.684 185.23C137.684 179.896 141.219 177.008 153.806 177.008H159.637Z" fill="#EAB977"/>
<path d="M270.866 205.45C262.076 205.45 258.591 201.26 258.591 193.611V168.371C258.591 157.547 253.702 152.915 246.628 152.915C239.997 152.915 235.524 157.547 235.524 166.498V205.45H231.206C223.977 205.45 219.374 201.26 219.374 193.611V168.371C219.374 157.547 214.328 152.915 207.255 152.915C200.909 152.915 196.15 157.963 196.15 166.914V205.45H191.833C185.175 205.45 180 201.13 180 193.611V168.215C180 150.469 189.362 138.5 209.127 138.5C217.631 138.5 224.263 142.377 229.022 148.726C232.793 142.663 239.841 138.5 247.773 138.5C262.778 138.5 274.897 147.581 274.897 166.185V205.45H270.866Z" fill="#0A3A82"/>
<path d="M204.859 18.6505H242.672C244.492 18.6505 245.949 17.1934 245.949 15.398V11.8853C245.949 10.0899 244.492 8.63281 242.672 8.63281H204.859C203.038 8.63281 201.582 10.0899 201.582 11.8853V15.398C201.582 17.1934 203.038 18.6505 204.859 18.6505Z" fill="#EAB977"/>
<path d="M204.859 43.4709H242.672C244.492 43.4709 245.949 42.0137 245.949 40.1923V36.7056C245.949 34.9102 244.492 33.4531 242.672 33.4531H204.859C203.038 33.4531 201.582 34.9102 201.582 36.7056V40.1923C201.582 42.0137 203.038 43.4709 204.859 43.4709Z" fill="#EAB977"/>
<path d="M204.859 68.2938H242.672C244.492 68.2938 245.949 66.8106 245.949 65.0152V61.5285C245.949 59.7071 244.492 58.25 242.672 58.25H204.859C203.038 58.25 201.582 59.7071 201.582 61.5285V65.0152C201.582 66.8106 203.038 68.2938 204.859 68.2938Z" fill="#EAB977"/>
<path fill-rule="evenodd" clip-rule="evenodd" d="M50.1739 21.4851C50.1739 31.8411 43.3603 41.1563 31.7354 41.1563C25.988 41.1563 21.3069 39.0227 17.848 35.588C17.848 35.588 12.4127 31.1126 12.3867 19.6117V19.5597C12.3867 19.5076 12.3867 19.4816 12.3867 19.4296C12.6208 9.46388 19.6685 0.460938 30.8772 0.460938C43.3603 0.460938 50.1739 9.85418 50.1739 21.4851ZM40.5776 20.2362C40.5776 13.4189 37.6129 8.52716 31.7354 8.52716C24.9478 8.52716 21.983 13.4189 21.983 21.4851C21.983 28.3024 24.9478 33.0901 30.8772 33.0901C37.6909 33.0901 40.5776 28.3024 40.5776 20.2362Z" fill="#0A3A82"/>
</svg>
